<svg width="94" height="76" viewBox="0 0 94 76" fill="none" xmlns="http://www.w3.org/2000/svg">
<path d="M86.5698 0H7.43015C3.28309 0 0 3.2968 0 7.46119V68.5388C0 72.7032 3.28309 76 7.43015 76H86.5698C90.7169 76 94 72.7032 94 68.5388V7.46119C94 3.2968 90.5441 0 86.5698 0ZM90.5441 68.5388C90.5441 70.7945 88.8162 72.5297 86.5698 72.5297H7.43015C5.18382 72.5297 3.45588 70.7945 3.45588 68.5388V19.9543H90.5441V68.5388ZM90.5441 16.484H3.45588V7.46119C3.45588 5.20548 5.18382 3.47032 7.43015 3.47032H86.5698C88.8162 3.47032 90.5441 5.20548 90.5441 7.46119V16.484Z" fill="#373B47"/>
<path d="M10.1949 13.3606C11.7218 13.3606 12.9596 12.1176 12.9596 10.5844C12.9596 9.05108 11.7218 7.80811 10.1949 7.80811C8.66798 7.80811 7.43018 9.05108 7.43018 10.5844C7.43018 12.1176 8.66798 13.3606 10.1949 13.3606Z" fill="#373B47"/>
<path d="M19.5258 13.3606C21.0527 13.3606 22.2905 12.1176 22.2905 10.5844C22.2905 9.05108 21.0527 7.80811 19.5258 7.80811C17.9988 7.80811 16.761 9.05108 16.761 10.5844C16.761 12.1176 17.9988 13.3606 19.5258 13.3606Z" fill="#373B47"/>
<path d="M28.6838 13.3606C30.2107 13.3606 31.4485 12.1176 31.4485 10.5844C31.4485 9.05108 30.2107 7.80811 28.6838 7.80811C27.1569 7.80811 25.9191 9.05108 25.9191 10.5844C25.9191 12.1176 27.1569 13.3606 28.6838 13.3606Z" fill="#373B47"/>
<path d="M34.9044 58.3013C35.25 58.4748 35.5956 58.6484 35.9412 58.6484C36.6323 58.6484 37.3235 58.3013 37.6691 57.7808C38.1875 56.9132 38.0147 55.6986 36.9779 55.0045L22.636 46.1552L36.4596 36.6118C37.3235 35.9178 37.6691 34.7032 36.9779 33.8356C36.2868 32.968 35.0772 32.621 34.2132 33.315L17.9706 44.5936V47.8904L34.9044 58.3013Z" fill="#373B47"/>
<path d="M56.3309 58.475C56.6765 58.475 57.0221 58.3014 57.3676 58.1279L74.3015 47.5434V44.2466L58.0588 32.9681C57.1948 32.274 55.9853 32.6211 55.2941 33.4886C54.6029 34.3562 54.9485 35.5708 55.8125 36.2649L69.636 45.8083L55.2941 54.8311C54.4301 55.3517 54.0846 56.5663 54.6029 57.6074C54.9485 58.1279 55.6397 58.475 56.3309 58.475Z" fill="#373B47"/>
<path d="M40.4338 66.4567C40.6066 66.4567 40.7794 66.4567 40.9522 66.4567C41.8162 66.4567 42.6801 65.9362 42.8529 64.8951L52.3566 27.0686C52.7022 26.0275 52.011 24.9864 50.9742 24.6393C49.9375 24.2923 48.9007 24.9864 48.5551 26.0275L39.0514 63.854C38.7059 65.0686 39.397 66.1097 40.4338 66.4567Z" fill="#373B47"/>
</svg>
