<svg width="102" height="102" viewBox="0 0 102 102" fill="none" xmlns="http://www.w3.org/2000/svg">
<path d="M41.9384 101.029C33.4697 101.029 25.0011 98.5613 17.6616 93.2455C-1.15758 79.7662 -5.67418 53.1872 7.68744 34.2023C18.4144 18.8244 38.3627 12.5594 55.8646 18.6346C56.4291 18.8244 56.8055 19.2041 56.9937 19.7737C57.1819 20.3432 56.9937 20.9128 56.8055 21.2925L54.5472 24.5199C54.1708 25.0895 54.359 26.4184 55.1118 27.9372C56.0527 29.8357 57.9347 31.7342 60.193 33.253C62.4513 34.7718 64.8978 35.9109 66.7797 36.2906C68.2852 36.4805 69.6026 36.2906 69.979 35.7211L72.2373 32.4936C72.6136 32.1139 72.99 31.7342 73.5546 31.7342C74.1192 31.7342 74.6837 31.9241 74.8719 32.3038C86.5398 46.9222 87.1044 67.9955 76.1893 83.1835C68.097 94.9541 55.1118 101.029 41.9384 101.029ZM42.1265 19.7737C29.8941 19.7737 17.8498 25.659 10.5103 36.1008C-1.91035 53.5669 2.22987 78.0575 19.5435 90.3977C36.8572 102.928 61.1339 98.7511 73.3664 81.285C82.776 67.8056 82.776 49.7699 73.5546 36.2906L72.6136 37.6196C71.2963 39.3282 69.038 40.0876 66.0269 39.7079C63.3922 39.3282 60.5694 37.9993 57.9347 36.1008C55.3 34.2023 53.2299 31.9241 51.9125 29.6459C50.407 26.988 50.407 24.5199 51.5361 22.6214L52.4771 21.2925C49.0896 20.1534 45.514 19.7737 42.1265 19.7737Z" fill="#373B47"/>
<path d="M11.8276 60.4015C10.8867 60.4015 10.1339 59.6421 10.1339 58.6929C10.1339 52.0481 12.204 45.5932 15.9679 40.0876C18.9789 35.7211 23.3073 32.1139 28.0121 29.8357C28.9531 29.456 29.8941 29.8357 30.2704 30.5951C30.6468 31.5444 30.2704 32.4936 29.5177 32.8733C25.1893 34.9617 21.4254 38.1891 18.7907 41.9861C15.4033 46.9222 13.5214 52.6177 13.5214 58.6929C13.5214 59.6421 12.7686 60.4015 11.8276 60.4015Z" fill="#373B47"/>
<path d="M73.3664 31.7342C70.5436 31.7342 66.9679 30.4052 63.5805 27.9372C60.9458 26.0387 58.8757 23.7605 57.5583 21.4823C56.0528 18.8244 56.0528 16.3563 57.1819 14.4578C58.4993 12.7492 60.7576 11.9898 63.7687 12.3695C66.4034 12.7492 69.2262 14.0781 71.8609 15.9766C77.8831 20.3432 80.5177 26.0387 78.2594 29.456C77.3185 30.9748 75.6247 31.7342 73.3664 31.7342ZM62.0749 15.7868C61.134 15.7868 60.3812 15.9766 60.0048 16.5462C59.6284 17.1157 59.8166 18.4447 60.5694 19.9635C61.5104 21.862 63.3923 23.7605 65.6506 25.2793C70.3554 28.6966 74.6838 28.8864 75.6248 27.7473C76.5657 26.4184 74.872 22.4315 70.1672 19.0142C67.9089 17.4954 65.4624 16.3563 63.5805 15.9766C63.0159 15.7868 62.4513 15.7868 62.0749 15.7868Z" fill="#373B47"/>
<path d="M67.7206 39.7078C64.8978 39.7078 61.3221 38.3789 57.9347 35.9108C51.9125 31.5443 49.2778 25.8488 51.5361 22.4315L57.1819 14.268C57.7465 13.5086 58.8756 13.3187 59.6284 13.8883C60.3812 14.4578 60.5694 15.5969 60.0048 16.3563C59.6284 16.9259 59.8166 18.2548 60.5694 19.7736C61.5103 21.6721 63.3922 23.5706 65.6505 25.0894C70.3553 28.5067 74.6837 28.6966 75.6247 27.5575C76.1893 26.7981 77.3184 26.6082 78.0712 27.1778C78.824 27.7473 79.0122 28.8864 78.4476 29.6458L72.8018 37.8093C71.6727 39.1383 69.7908 39.7078 67.7206 39.7078ZM57.1819 20.533L54.359 24.5199C53.4181 25.8488 55.1118 29.8357 59.8166 33.253C64.5214 36.6702 68.8498 36.8601 69.7908 35.721L72.6136 31.7342C69.9789 31.5443 66.7797 30.2154 63.5804 28.127C60.9457 26.2285 58.8756 23.9503 57.5583 21.6721C57.3701 21.1026 57.3701 20.9127 57.1819 20.533Z" fill="#373B47"/>
<path d="M68.097 23.3807C67.9088 23.3807 67.5325 23.3807 67.3443 23.1908C66.5915 22.8111 66.2151 21.672 66.5915 20.9126C66.7797 20.7228 69.7908 14.8375 74.4956 13.5085C76.3775 12.939 78.2594 13.1288 79.9531 14.2679L80.8941 14.6476C84.8461 16.9258 91.621 20.9126 95.5731 19.3939C96.8904 18.8243 98.0196 17.6852 98.5841 15.5969C98.9605 14.6476 99.9015 14.2679 100.654 14.4578C101.595 14.8375 101.972 15.7867 101.783 16.5461C100.842 19.5837 99.1487 21.4822 96.7022 22.4314C91.2446 24.5198 83.9052 20.3431 79.0122 17.4954L78.2594 17.1157C77.3184 16.5461 76.3775 16.3563 75.4365 16.736C72.8018 17.4954 70.3553 21.1025 69.6026 22.4314C69.2262 23.001 68.6616 23.3807 68.097 23.3807Z" fill="#373B47"/>
<path d="M91.8092 13.8883C91.2446 13.8883 90.8683 13.6984 90.4919 13.3187L88.61 11.0405C88.0454 10.2811 88.0454 9.14203 88.7982 8.57249C89.5509 8.00294 90.6801 8.00294 91.2446 8.76234L93.1266 11.0405C93.6911 11.7999 93.6911 12.939 92.9384 13.5086C92.562 13.8883 92.1856 13.8883 91.8092 13.8883Z" fill="#373B47"/>
<path d="M96.7022 9.71162C95.9494 9.71162 95.1966 9.14207 95.0084 8.19282L94.0675 1.92778C93.8793 0.978534 94.6321 0.0292864 95.573 0.0292864C96.514 -0.160563 97.4549 0.598835 97.4549 1.54808L98.2077 7.81312C98.3959 8.76237 97.6431 9.71162 96.7022 9.71162Z" fill="#373B47"/>
<path d="M93.8793 37.4298C93.6911 37.4298 93.6911 37.4298 93.5029 37.4298C92.562 37.2399 91.9974 36.2907 92.1856 35.3414L93.5029 28.317C93.6911 27.3677 94.6321 26.7982 95.573 26.988C96.514 27.1779 97.0786 28.1271 96.8904 29.0764L95.573 36.1008C95.3849 36.8602 94.8203 37.4298 93.8793 37.4298Z" fill="#373B47"/>
</svg>
