<svg width="98" height="95" viewBox="0 0 98 95" fill="none" xmlns="http://www.w3.org/2000/svg">
<path d="M36.5073 50.0652C35.6254 50.2421 35.0963 50.9497 35.0963 51.8343C35.0963 52.1881 35.0963 52.5419 35.0963 52.7188C35.0963 56.0801 32.4509 58.7337 29.1 58.7337C26.8073 58.7337 24.8673 57.4954 23.8091 55.3724C23.4563 54.6648 22.3982 54.311 21.6927 54.6648C20.9873 55.0186 20.6345 56.0801 20.9873 56.7877C22.5745 59.9721 25.7491 61.9181 29.1 61.9181C34.2145 61.9181 38.2709 57.8492 38.2709 52.7188C38.2709 52.1881 38.2709 51.6574 38.0945 51.3035C38.2709 50.5959 37.3891 50.0652 36.5073 50.0652Z" fill="#373B47"/>
<path d="M37.9182 14.1527C37.2127 13.622 36.1545 13.622 35.6254 14.3296C35.0963 15.0373 35.0963 16.0987 35.8018 16.6294C37.5654 18.0447 38.6236 20.3445 38.6236 22.6443C38.6236 23.5289 39.3291 24.2365 40.2109 24.2365C41.0927 24.2365 41.7982 23.5289 41.7982 22.6443C41.9745 19.46 40.3873 16.2756 37.9182 14.1527Z" fill="#373B47"/>
<path d="M93.2964 40.689H89.0636C88.7109 39.0968 88.3582 37.5047 87.8291 35.9125L91.3564 33.7896C92.2382 33.2588 92.7673 32.5512 93.12 31.4898C93.2964 30.6052 93.2964 29.5438 92.7673 28.6592L89.5927 23.352C88.5345 21.5829 86.2418 21.0521 84.4782 21.9367L80.7745 24.0596C79.7164 22.8212 78.4818 21.5829 77.2473 20.5214L79.3636 16.8063C79.8927 15.9218 80.0691 15.0372 79.7164 13.9758C79.3636 12.9143 78.8345 12.2067 77.9527 11.676L72.6618 8.49162C71.78 7.96089 70.8982 7.78399 69.84 8.1378C68.9582 8.31471 68.0764 9.02235 67.5473 9.90689L65.4309 13.4451C63.8436 12.9143 62.2564 12.3836 60.6691 12.2067V8.31471C60.6691 6.19181 59.0818 4.59963 56.9655 4.59963H53.9673V1.59218C53.9673 0.707635 53.2618 0 52.38 0C51.4982 0 50.7927 0.707635 50.7927 1.59218V7.60708C47.7945 3.00745 42.5036 0 36.5073 0C27.3364 0 19.7527 7.07635 19.0473 16.0987C11.9927 16.8063 6.70182 22.8212 6.70182 30.0745C6.70182 31.6667 6.87818 33.0819 7.40727 34.4972C2.82182 38.0354 0 43.5196 0 49.3575C0 54.6648 2.29273 59.7952 6.34909 63.3333C6.34909 63.5102 6.34909 63.6871 6.34909 63.8641C6.34909 70.0559 9.52364 75.7169 14.4618 78.9013C14.6382 79.0782 14.8145 79.0782 14.9909 79.2551C15.1673 79.432 15.52 79.6089 15.6964 79.6089C16.9309 80.3166 18.3418 80.8473 19.9291 81.2011C21.5164 89.162 28.7473 95 36.86 95C42.68 95 47.9709 91.9926 50.9691 87.5698V93.4078C50.9691 94.2924 51.6745 95 52.5564 95C53.4382 95 54.1436 94.2924 54.1436 93.4078V90.4004H57.1418C59.2582 90.4004 60.8455 88.8082 60.8455 86.6853V82.4395C62.4327 82.0857 64.02 81.7318 65.6073 81.2011L67.7236 84.7393C68.2527 85.6238 68.9582 86.1546 70.0164 86.5084C70.8982 86.6853 71.9564 86.6853 72.8382 86.1546L78.1291 82.9702C79.0109 82.4395 79.54 81.7318 79.8927 80.6704C80.2455 79.6089 80.0691 78.7244 79.54 77.8399L77.4236 74.1248C78.6582 73.0633 79.8927 71.825 80.9509 70.5866L84.6545 72.7095C86.4182 73.771 88.7109 73.0633 89.7691 71.2942L92.9436 65.987C93.4727 65.1024 93.6491 64.2179 93.2964 63.1564C93.12 62.2719 92.4146 61.3873 91.5327 60.8566L88.0055 58.7337C88.5345 57.1415 89.0636 55.5494 89.24 53.9572H93.4727C95.5891 53.9572 97.1764 52.365 97.1764 50.2421V44.0503C97 42.2812 95.2364 40.689 93.2964 40.689ZM50.9691 77.486C50.9691 85.27 44.62 91.6387 36.86 91.6387C30.5109 91.6387 25.0436 87.3929 23.28 81.378C23.6327 81.378 23.8091 81.378 24.1618 81.378C27.8655 81.378 31.5691 80.1397 34.5673 78.0168C35.2727 77.486 35.4491 76.4246 34.92 75.7169C34.3909 75.0093 33.3327 74.8324 32.6273 75.3631C30.1582 77.1322 27.16 78.1937 24.1618 78.1937C22.2218 78.1937 20.2818 77.8399 18.5182 77.1322C18.5182 77.1322 18.5182 77.1322 18.3418 77.1322C17.9891 76.9553 17.6364 76.7784 17.46 76.6015C17.2836 76.6015 17.1073 76.4246 16.9309 76.2477C16.7545 76.2477 16.5782 76.0708 16.5782 76.0708C12.3455 73.4171 9.7 68.8175 9.7 63.6872C9.7 63.3333 9.7 63.1564 9.7 62.8026V62.6257C9.7 62.4488 9.7 62.2719 9.52364 62.095C9.7 59.9721 10.4055 58.0261 11.2873 56.257C11.64 55.5493 11.4636 54.4879 10.7582 54.1341C10.0527 53.6034 8.99455 53.9572 8.64182 54.6648C7.76 56.0801 7.23091 57.4953 6.87818 59.0875C4.58545 56.257 3.17455 52.8957 3.17455 49.1806C3.17455 45.1117 4.76182 41.2197 7.58364 38.3892C7.76 38.3892 7.93636 38.2123 8.11273 38.0354C10.4055 35.7356 13.2273 34.3203 16.4018 33.7896C17.2836 33.6127 17.8127 32.905 17.8127 32.0205C17.6364 31.1359 16.7545 30.6052 16.0491 30.6052C13.9327 30.959 11.9927 31.6667 10.2291 32.5512C10.0527 31.6667 9.87636 30.7821 9.87636 29.7207C9.87636 23.7058 14.6382 18.9292 20.6345 18.9292C21.5164 18.9292 22.2218 18.2216 22.2218 17.3371C22.2218 9.37616 28.7473 2.83054 36.6836 2.83054C44.62 2.83054 51.1455 9.37616 51.1455 17.3371V77.486H50.9691ZM54.1436 25.4749C65.96 25.4749 75.66 35.2048 75.66 47.0577C75.66 58.9106 65.96 68.6406 54.1436 68.6406V25.4749ZM93.6491 50.5959C93.6491 50.7728 93.4727 50.9497 93.2964 50.9497H87.8291C86.9473 50.9497 86.4182 51.4804 86.2418 52.365C85.8891 54.6648 85.36 56.9646 84.4782 59.2644C84.1255 59.9721 84.4782 60.8566 85.1836 61.2104L89.9455 64.041C90.1218 64.041 90.1218 64.2179 90.1218 64.2179C90.1218 64.3948 90.1218 64.3948 90.1218 64.5717L86.9473 69.879C86.9473 70.0559 86.7709 70.0559 86.7709 70.0559C86.5945 70.0559 86.5945 70.0559 86.4182 70.0559L81.6564 67.2253C80.9509 66.8715 80.0691 67.0484 79.54 67.5791C78.1291 69.3482 76.3655 71.1173 74.6018 72.5326C73.8964 73.0633 73.8964 73.9479 74.2491 74.6555L77.0709 79.432C77.2473 79.6089 77.0709 79.9628 76.8945 79.9628L71.6036 83.1471C71.4273 83.324 71.0745 83.1471 71.0745 82.9702L68.2527 78.1937C67.9 77.486 67.0182 77.1322 66.3127 77.486C64.02 78.3706 61.7273 78.9013 59.4345 79.2551C58.5527 79.432 58.0236 80.1397 58.0236 80.8473V86.6853C58.0236 86.8622 57.8473 87.0391 57.6709 87.0391H54.6727V77.486V71.825C68.2527 71.825 79.3636 60.6797 79.3636 47.0577C79.3636 33.4358 68.2527 22.2905 54.6727 22.2905V17.6909V7.78399H57.6709C57.8473 7.78399 58.0236 7.96089 58.0236 8.1378V13.622C58.0236 14.5065 58.5527 15.0372 59.4345 15.2142C61.7273 15.568 64.02 16.2756 66.3127 16.9832C67.0182 17.3371 67.9 16.9832 68.2527 16.2756L71.0745 11.4991C71.2509 11.3222 71.4273 11.1453 71.6036 11.3222L76.8945 14.5065C77.0709 14.6834 77.2473 14.8603 77.0709 15.0372L74.0727 20.1676C73.72 20.8752 73.8964 21.7598 74.4255 22.2905C76.1891 23.7058 77.9527 25.4749 79.3636 27.2439C79.8927 27.9516 80.7745 28.1285 81.48 27.5978L86.2418 24.7672C86.4182 24.5903 86.7709 24.7672 86.7709 24.9441L89.9455 30.2514C89.9455 30.4283 89.9455 30.4283 89.9455 30.6052C89.9455 30.7821 89.7691 30.7821 89.7691 30.7821L85.0073 33.6127C84.3018 33.9665 83.9491 34.851 84.3018 35.5587C85.1836 37.8585 85.7127 40.1583 86.0655 42.4581C86.2418 43.3426 86.9473 43.8734 87.6527 43.8734H93.12C93.2964 43.8734 93.4727 44.0503 93.4727 44.2272V50.5959H93.6491Z" fill="#373B47"/>
</svg>
