<svg width="86" height="82" viewBox="0 0 86 82" fill="none" xmlns="http://www.w3.org/2000/svg">
<path d="M57.2054 42.79C61.3006 46.8815 67.7847 46.8815 71.88 42.79L82.9712 31.7089C84.8482 29.8337 85.872 27.2765 85.872 24.5489C85.872 21.8212 84.8482 19.264 82.9712 17.3888C81.4355 15.8545 79.0466 15.8545 77.5109 17.3888L67.7847 27.106C67.1022 27.7879 65.5665 28.1289 63.8601 27.7879C62.3244 27.447 60.9593 26.7651 59.9355 25.9127C59.0823 24.8898 58.3998 23.3555 58.0585 21.9917C57.7173 20.2869 57.8879 18.9231 58.7411 18.0707L68.4673 8.35343C70.003 6.81913 70.003 4.43243 68.6379 2.89813C66.5903 1.02287 64.0307 0 61.4712 0C58.9117 0 56.1815 1.02287 54.3046 2.89813L43.2133 13.9792C41.1657 16.0249 40.1419 18.5821 40.1419 21.3098C40.1419 24.0374 41.1657 26.7651 43.2133 28.6403C43.7252 29.1518 43.7252 29.8337 43.2133 30.1746L37.753 35.8004L31.4395 29.4927L31.9514 28.9813C34.8522 26.0832 34.8522 21.4802 31.9514 18.5821L17.1061 3.58004C13.1815 -0.340956 6.86805 -0.340956 2.94345 3.58004C-0.981151 7.50104 -0.981151 13.8087 2.94345 17.7297L17.9593 32.7318C19.3244 34.0956 21.2014 34.948 23.0784 34.948C24.9554 34.948 26.8323 34.2661 28.1974 32.7318L29.2212 31.7089L35.5347 38.0166L6.52678 66.9979C3.11409 70.4075 3.11409 76.0333 6.52678 79.4428C8.23313 81.1476 10.4514 82 12.8403 82C15.2292 82 17.4474 81.1476 19.1538 79.4428L48.3323 50.2911L67.7847 69.7256C67.4435 70.7484 67.7847 71.7713 68.4673 72.6237L76.1458 80.2952C76.6577 80.8067 77.5109 81.1476 78.1934 81.1476C78.876 81.1476 79.7292 80.8067 80.2411 80.2952C81.4355 79.1019 81.4355 77.2266 80.2411 76.0333L72.5625 68.3617C71.7093 67.5094 70.6855 67.3389 69.6617 67.6798L50.2093 48.2453L55.6696 42.79C56.0109 42.2786 56.8641 42.2786 57.2054 42.79ZM29.9038 26.7651L29.0506 27.7879L27.8561 28.9813L26.3204 30.5156C24.6141 32.2204 21.8839 32.2204 20.1776 30.5156L5.16171 15.5135C2.43155 12.7859 2.43155 8.52391 5.16171 5.79626C6.52678 4.43243 8.23313 3.75052 10.1101 3.75052C11.8165 3.75052 13.6935 4.43243 15.0585 5.79626L30.0744 20.7983C31.6101 22.3326 31.6101 25.0603 29.9038 26.7651ZM48.1617 46.0291L46.1141 48.0748L16.9355 77.2266C14.7173 79.4428 10.9633 79.4428 8.74504 77.2266C7.72123 76.2037 7.03869 74.6694 7.03869 73.1351C7.03869 71.6008 7.72123 70.0665 8.74504 69.0437L37.9236 39.8919L39.9712 37.8462L45.4315 32.3909C46.9673 30.8566 46.9673 28.1289 45.4315 26.5946C44.0665 25.2308 43.2133 23.3555 43.2133 21.3098C43.2133 19.264 44.0665 17.5593 45.4315 16.0249L56.3522 5.11435C57.7173 3.75052 59.5942 3.06861 61.3006 3.06861C63.0069 3.06861 64.8839 3.75052 66.249 5.11435C66.5903 5.4553 66.5903 5.96674 66.249 6.30769L56.5228 16.0249C54.9871 17.5593 54.4752 19.7755 54.9871 22.5031C55.3284 24.3784 56.1815 26.2536 57.2054 27.6175L58.0585 28.4699C59.4236 29.4927 61.3006 30.3451 63.1776 30.6861C65.9077 31.1975 68.2966 30.6861 69.6617 29.1518L79.3879 19.4345C79.7292 19.0936 80.2411 19.0936 80.5823 19.4345C83.3125 22.1622 83.3125 26.7651 80.5823 29.4927L69.4911 40.5738C66.5903 43.4719 61.9831 43.4719 59.0823 40.5738C57.5466 39.0395 54.8165 39.0395 53.2808 40.5738L48.1617 46.0291Z" fill="#373B47"/>
<path d="M49.0149 35.8005L43.384 41.4262L41.3363 43.472L18.3006 66.4865C17.9594 66.8275 17.9594 67.1684 18.3006 67.5094C18.4713 67.6799 18.6419 67.6799 18.8125 67.6799C18.9832 67.6799 19.1538 67.6799 19.3244 67.5094L42.3601 44.4949L44.4078 42.4491L50.0387 36.8233C50.38 36.4824 50.38 36.1414 50.0387 35.8005C49.8681 35.63 49.3562 35.63 49.0149 35.8005Z" fill="#373B47"/>
</svg>
