<svg width="91" height="91" viewBox="0 0 91 91" fill="none" xmlns="http://www.w3.org/2000/svg">
<path d="M89.4438 0.556701C89.0726 0.185567 88.7015 0 88.1448 0C86.8458 0 56.2273 0.371135 38.9696 16.8866L28.3922 17.8144C22.2685 18.3711 16.5159 21.7113 12.9902 26.9072L0.371615 44.9072C-0.185086 45.6495 0.000480555 46.5773 0.371615 47.134C0.928316 47.6907 1.85615 47.8763 2.59842 47.6907L19.6706 39.7113C22.2685 38.4124 25.2376 38.0412 28.0211 38.5979C27.65 40.4536 27.2788 42.3093 27.0933 44.3505V44.5361L17.4438 47.8763C16.8871 48.0619 16.3304 48.6186 16.3304 49.1753C16.1448 49.732 16.3304 50.4742 16.8871 50.8454L39.5263 73.4845C39.8974 73.8557 40.6397 74.0412 41.1964 74.0412C41.7531 73.8557 42.3098 73.4845 42.4953 72.9278L45.8355 63.2784H46.0211C48.0623 62.9072 49.918 62.7216 51.7737 62.3505C52.3304 65.134 51.9592 68.1031 50.6603 70.701L42.6809 87.7732C42.3098 88.5155 42.4953 89.4433 43.2376 90C43.6087 90.1856 43.9799 90.3711 44.351 90.3711C44.7221 90.3711 45.0933 90.1856 45.4644 90L63.4644 77.3814C68.6603 73.8557 71.8149 68.1031 72.3716 61.7938L73.2994 51.2165C89.8149 33.9588 90.186 3.34021 90.186 2.04124C90.0005 1.29897 89.8149 0.927835 89.4438 0.556701ZM55.1139 61.2371C60.6809 59.7526 65.1345 57.7113 69.0314 54.5567L68.4747 61.2371C67.918 66.433 65.3201 71.0722 61.052 74.0412L48.619 82.7629L53.6293 72C55.2994 68.6598 55.8562 64.9485 55.1139 61.2371ZM83.3201 23.1959C80.351 34.3299 75.8974 43.0515 69.9592 49.1753C62.351 56.7835 54.0005 58.0825 45.2788 59.567H44.9077L30.619 45.2784V44.9072C32.1036 36.1856 33.4025 27.8351 41.0108 20.2268C46.9489 14.2887 55.6706 9.83505 66.9902 6.86598L83.3201 23.1959ZM42.1242 61.9794L39.7118 68.8454L21.1551 50.2887L28.0211 47.8763L42.1242 61.9794ZM35.4438 20.9691C32.2891 24.866 30.2479 29.3196 28.7634 34.8866C25.2376 34.1443 21.3407 34.701 18.0005 36.1856L7.23759 41.1959L15.9592 28.7629C18.9283 24.4948 23.5675 21.7113 28.7634 21.3402L35.4438 20.9691ZM86.2891 3.71134C86.1036 6.30928 85.7324 12.2474 84.2479 19.1134L70.8871 5.75258C77.5675 4.45361 83.1345 3.89691 86.2891 3.71134Z" fill="#373B47"/>
</svg>
