<svg width="79" height="75" viewBox="0 0 79 75" fill="none" xmlns="http://www.w3.org/2000/svg">
<path d="M74.2763 54.721C76.8825 54.721 79 52.6288 79 50.0536V45.3863C79 42.8112 76.8825 40.7189 74.2763 40.7189H69.5526V7.08155C69.5526 6.27682 68.901 5.4721 67.9237 5.4721H50.4948V1.60944C50.4948 0.804721 49.8433 0 48.866 0H1.62887C0.651546 0 0 0.643777 0 1.60944V12.5536C0 13.3584 0.651546 14.1631 1.62887 14.1631H9.44742V20.4399H4.72371C2.11753 20.4399 0 22.5322 0 25.1073V29.7747C0 32.3498 2.11753 34.4421 4.72371 34.4421H9.44742V40.7189H4.72371C2.11753 40.7189 0 42.8112 0 45.3863V49.8927C0 52.4678 2.11753 54.721 4.72371 54.721H9.44742V60.9979H4.72371C2.11753 60.9979 0 63.0901 0 65.6652V70.3326C0 72.9077 2.11753 75 4.72371 75H17.4289C20.0351 75 22.1526 72.9077 22.1526 70.3326V69.5279H28.668C29.4825 72.7468 32.2515 75 35.6722 75H43.4907C47.4 75 50.6577 71.7811 50.6577 67.9185C50.6577 64.0558 47.4 60.8369 43.4907 60.8369H35.6722C32.4144 60.8369 29.4825 63.0901 28.668 66.309H22.1526V65.5043C22.1526 62.9292 20.0351 60.8369 17.4289 60.8369H12.7052V54.721H17.4289C20.0351 54.721 22.1526 52.6288 22.1526 50.0536V45.3863C22.1526 42.8112 20.0351 40.7189 17.4289 40.7189H12.7052V34.4421H17.4289C20.0351 34.4421 22.1526 32.3498 22.1526 29.7747V25.1073C22.1526 22.5322 20.0351 20.4399 17.4289 20.4399H12.7052V14.0021H49.0289C49.8433 14.0021 50.6577 13.3584 50.6577 12.3927V8.53004H66.4577V25.7511H50.4948V24.9464C50.4948 22.3712 48.3773 20.279 45.7711 20.279H33.066C30.4598 20.279 28.3423 22.3712 28.3423 24.9464V29.6137C28.3423 32.1888 30.4598 34.2811 33.066 34.2811H45.7711C48.3773 34.2811 50.4948 32.1888 50.4948 29.6137V28.97H66.2948V40.7189H61.5711C58.9649 40.7189 56.8474 42.8112 56.8474 45.3863V46.191H50.332C49.5175 42.9721 46.7485 40.7189 43.3278 40.7189H35.5093C31.6 40.7189 28.3423 43.9378 28.3423 47.8004C28.3423 51.6631 31.6 54.882 35.5093 54.882H43.3278C46.5856 54.882 49.5175 52.6288 50.332 49.4099H56.8474V49.8927C56.8474 52.4678 58.9649 54.5601 61.5711 54.5601H66.2948V60.8369H64.0144C60.1052 60.8369 56.8474 64.0558 56.8474 67.9185C56.8474 71.7811 60.1052 75 64.0144 75H71.833C75.7423 75 79 71.7811 79 67.9185C79 64.0558 75.7423 60.8369 71.833 60.8369H69.5526V54.721H74.2763ZM75.7423 49.8927C75.7423 50.6974 75.0907 51.5021 74.1134 51.5021H61.4082C60.5938 51.5021 59.7794 50.8584 59.7794 49.8927V45.2253C59.7794 44.4206 60.4309 43.6159 61.4082 43.6159H74.1134C74.9278 43.6159 75.7423 44.2597 75.7423 45.2253V49.8927ZM64.0144 64.0558H71.833C73.9505 64.0558 75.7423 65.8262 75.7423 67.9185C75.7423 70.0107 73.9505 71.7811 71.833 71.7811H64.0144C61.8969 71.7811 60.1052 70.0107 60.1052 67.9185C60.1052 65.8262 61.734 64.0558 64.0144 64.0558ZM18.8948 70.1717C18.8948 70.9764 18.2433 71.7811 17.266 71.7811H4.72371C3.90928 71.7811 3.09485 71.1373 3.09485 70.1717V65.5043C3.09485 64.6996 3.74639 63.8949 4.72371 63.8949H17.4289C18.2433 63.8949 19.0577 64.5386 19.0577 65.5043V70.1717H18.8948ZM18.8948 49.8927C18.8948 50.6974 18.2433 51.5021 17.266 51.5021H4.72371C3.90928 51.5021 3.09485 50.8584 3.09485 49.8927V45.2253C3.09485 44.4206 3.74639 43.6159 4.72371 43.6159H17.4289C18.2433 43.6159 19.0577 44.2597 19.0577 45.2253V49.8927H18.8948ZM18.8948 29.6137C18.8948 30.4185 18.2433 31.2232 17.266 31.2232H4.72371C3.90928 31.2232 3.09485 30.5794 3.09485 29.6137V24.9464C3.09485 24.1416 3.74639 23.3369 4.72371 23.3369H17.4289C18.2433 23.3369 19.0577 23.9807 19.0577 24.9464V29.6137H18.8948ZM47.4 3.21888V10.9442H3.25773V3.21888H47.4ZM31.6 67.9185C31.6 65.8262 33.3918 64.0558 35.5093 64.0558H43.3278C45.4454 64.0558 47.2371 65.8262 47.2371 67.9185C47.2371 70.0107 45.4454 71.7811 43.3278 71.7811H35.5093C33.3918 71.7811 31.6 70.0107 31.6 67.9185ZM31.6 24.9464C31.6 24.1416 32.2515 23.3369 33.2289 23.3369H45.934C46.7485 23.3369 47.5629 23.9807 47.5629 24.9464V29.6137C47.5629 30.4185 46.9113 31.2232 45.934 31.2232H33.2289C32.4144 31.2232 31.6 30.5794 31.6 29.6137V24.9464ZM47.4 47.6395C47.4 49.7318 45.6082 51.5021 43.4907 51.5021H35.6722C33.5546 51.5021 31.7629 49.7318 31.7629 47.6395C31.7629 45.5472 33.5546 43.7768 35.6722 43.7768H43.4907C45.6082 43.7768 47.4 45.5472 47.4 47.6395Z" fill="#373B47"/>
</svg>
