<svg width="26" height="26" viewBox="0 0 26 26" fill="none" xmlns="http://www.w3.org/2000/svg"><path d="M16.6732 14.3101C16.8199 14.3101 17.37 14.5564 18.3236 15.0491C19.2771 15.5418 19.7821 15.8385 19.8385 15.9393C19.8611 15.9953 19.8724 16.0792 19.8724 16.1912C19.8724 16.5607 19.7765 16.9862 19.5846 17.4677C19.4041 17.9044 19.0035 18.2711 18.3828 18.5678C17.7622 18.8646 17.1866 19.0129 16.6562 19.0129C16.013 19.0129 14.941 18.6658 13.4401 17.9716C12.3342 17.4677 11.375 16.8071 10.5625 15.9897C9.75 15.1723 8.91493 14.1365 8.05729 12.8824C7.24479 11.6843 6.84418 10.5982 6.85547 9.62403V9.48966C6.88932 8.47072 7.30686 7.58613 8.10807 6.83592C8.37891 6.58958 8.67231 6.46641 8.98828 6.46641C9.05599 6.46641 9.15755 6.47481 9.29297 6.4916C9.42839 6.5084 9.53559 6.5168 9.61458 6.5168C9.82899 6.5168 9.97852 6.55319 10.0632 6.62597C10.1478 6.69875 10.2352 6.85271 10.3255 7.08786C10.4158 7.3118 10.602 7.80448 10.8841 8.56589C11.1662 9.3273 11.3073 9.7472 11.3073 9.82558C11.3073 10.0607 11.1126 10.3826 10.7233 10.7913C10.334 11.2 10.1393 11.4604 10.1393 11.5724C10.1393 11.6507 10.1675 11.7347 10.224 11.8243C10.6076 12.6417 11.1832 13.4087 11.9505 14.1253C12.5825 14.7188 13.4345 15.2842 14.5065 15.8217C14.6419 15.9001 14.7661 15.9393 14.8789 15.9393C15.0482 15.9393 15.3529 15.6677 15.793 15.1247C16.2331 14.5816 16.5265 14.3101 16.6732 14.3101ZM13.237 23.2119C14.6701 23.2119 16.0441 22.932 17.3587 22.3721C18.6734 21.8122 19.8047 21.062 20.7526 20.1214C21.7005 19.1809 22.4566 18.0584 23.0208 16.7539C23.5851 15.4494 23.8672 14.0861 23.8672 12.6641C23.8672 11.242 23.5851 9.87877 23.0208 8.57429C22.4566 7.26981 21.7005 6.14729 20.7526 5.20672C19.8047 4.26615 18.6734 3.51593 17.3587 2.95607C16.0441 2.39621 14.6701 2.11628 13.237 2.11628C11.8038 2.11628 10.4299 2.39621 9.11523 2.95607C7.80056 3.51593 6.66927 4.26615 5.72135 5.20672C4.77344 6.14729 4.01736 7.26981 3.45313 8.57429C2.88889 9.87877 2.60677 11.242 2.60677 12.6641C2.60677 14.9371 3.28385 16.9974 4.63802 18.845L3.30078 22.7584L7.39714 21.4651C9.18012 22.6296 11.1267 23.2119 13.237 23.2119ZM13.237 0C14.9635 0 16.6139 0.335917 18.1882 1.00775C19.7624 1.67959 21.1194 2.58096 22.2591 3.71189C23.3989 4.84281 24.3073 6.18928 24.9844 7.75129C25.6615 9.31331 26 10.9509 26 12.6641C26 14.3773 25.6615 16.0149 24.9844 17.5769C24.3073 19.1389 23.3989 20.4854 22.2591 21.6163C21.1194 22.7472 19.7624 23.6486 18.1882 24.3204C16.6139 24.9922 14.9635 25.3282 13.237 25.3282C11.0365 25.3282 8.977 24.8019 7.05859 23.7494L0 26L2.30208 19.1977C1.08333 17.2046 0.473958 15.0267 0.473958 12.6641C0.473958 10.9509 0.8125 9.31331 1.48958 7.75129C2.16667 6.18928 3.07509 4.84281 4.21484 3.71189C5.3546 2.58096 6.71159 1.67959 8.28581 1.00775C9.86003 0.335917 11.5104 0 13.237 0Z" fill="#B2B8D3"/></svg>